<?xml version="1.0" encoding="UTF-8"?>
<svg xmlns="http://www.w3.org/2000/svg" style="stroke-dasharray:none; shape-rendering:auto; font-family:'Arial'; text-rendering:auto; fill-opacity:1; color-interpolation:auto; color-rendering:auto; font-size:12; fill:black; stroke:black; image-rendering:auto; stroke-miterlimit:10; stroke-linecap:square; stroke-linejoin:miter; font-style:normal; stroke-width:1; stroke-dashoffset:0; font-weight:normal; stroke-opacity:1;" contentScriptType="text/ecmascript" preserveAspectRatio="xMidYMid meet" zoomAndPan="magnify" version="1.0" contentStyleType="text/css" xml:xlink="http://www.w3.org/1999/xlink" width="841" height="481"><rect x="10" y="10" width="831" height="471" ry="0" rx="0" style="stroke:#000000; fill:#FFFFFF" /><rect x="40" y="10" width="801" height="471" ry="0" rx="0" style="stroke:#000000; fill:#C0C0C0" /><g componentSequence="3"><text x="-245" y="47" transform="rotate(270)" text-anchor="middle" style="font-weight:bold;font-size:10px;stroke:none; fill:#434343"><tspan dy="14" x="-245">Atividades</tspan></text></g><g componentSequence="1"><text x="-245" y="17" transform="rotate(270)" text-anchor="middle" style="font-weight:bold;font-size:10px;stroke:none; fill:#434343"><tspan dy="14" x="-245">Acesso ou renovação de bolsa de estudo</tspan></text></g><g sequence="4"><ellipse cx="87" cy="47" rx="17" ry="17" stroke-width="1" style="fill:url(#linearGradient66FF6696FF96B6FFB6_378103274);" stroke="336633" /></g><g sequence="5"><rect x="80" y="95" width="106" height="70" ry="5" rx="5" style="fill:url(#linearGradientF8FBFEEDF5FCDEEDFAD4E7F8E2E5E9_407800139);" stroke="191970" /></g><g componentSequence="5"><text x="133" y="110" text-anchor="middle" style="font-weight:bold;font-size:10px;stroke:none; fill:#333399"><tspan dy="14" x="133">Processamento</tspan><tspan dy="14" x="133">da solicitação</tspan></text></g><rect x="130" y="20" width="281" height="55" ry="5" rx="5" style="stroke:none; fill:#FFFFE0" /><g componentSequence="7"><text x="140" y="33" text-anchor="left" style="font-weight:bold;font-size:10px;stroke:none; fill:#000000"><tspan dy="14" x="140">Preenchimento do formulário de solicitação</tspan></text></g><path style="fill:none; stroke-width:1; stroke:#000000;" d="M150.0 20.0 L130.0 20.0 L130.0 75.0 L150.0 75.0" /><g sequence="9"><rect x="80" y="180" width="106" height="98" ry="5" rx="5" style="fill:url(#linearGradientF8FBFEEDF5FCDEEDFAD4E7F8E2E5E9_477171354);" stroke="191970" /></g><g componentSequence="9"><text x="133" y="195" text-anchor="middle" style="font-weight:bold;font-size:10px;stroke:none; fill:#333399"><tspan dy="14" x="133">Gestor imediato</tspan><tspan dy="14" x="133">- Validar</tspan><tspan dy="14" x="133">solicitação</tspan></text></g><g sequence="11"><rect x="80" y="310" width="106" height="98" ry="5" rx="5" style="fill:url(#linearGradientF8FBFEEDF5FCDEEDFAD4E7F8E2E5E9_1500742512);" stroke="191970" /></g><g componentSequence="11"><text x="133" y="325" text-anchor="middle" style="font-weight:bold;font-size:10px;stroke:none; fill:#333399"><tspan dy="14" x="133">Aprovado -</tspan><tspan dy="14" x="133">GERH -</tspan><tspan dy="14" x="133">Classificar</tspan><tspan dy="14" x="133">solicitação</tspan></text></g><g sequence="13"><rect x="290" y="190" width="106" height="84" ry="5" rx="5" style="fill:url(#linearGradientF8FBFEEDF5FCDEEDFAD4E7F8E2E5E9_67640193);" stroke="191970" /></g><g componentSequence="13"><text x="343" y="205" text-anchor="middle" style="font-weight:bold;font-size:10px;stroke:none; fill:#333399"><tspan dy="14" x="343">Empregado -</tspan><tspan dy="14" x="343">Ajustar</tspan><tspan dy="14" x="343">solicitação</tspan></text></g><g sequence="18"><ellipse cx="607" cy="377" rx="17" ry="17" stroke-width="3" style="fill:url(#linearGradientFF6666FF9696FFB6B6_1751178906);" stroke="993333" /></g><g sequence="20"><ellipse cx="617" cy="187" rx="17" ry="17" stroke-width="3" style="fill:url(#linearGradientFF6666FF9696FFB6B6_2096175314);" stroke="993333" /></g><rect x="640" y="160" width="105" height="55" ry="5" rx="5" style="stroke:none; fill:#FFFFE0" /><g componentSequence="22"><text x="650" y="173" text-anchor="left" style="font-weight:bold;font-size:10px;stroke:none; fill:#000000"><tspan dy="14" x="650">Aprovado</tspan></text></g><path style="fill:none; stroke-width:1; stroke:#000000;" d="M660.0 160.0 L640.0 160.0 L640.0 215.0 L660.0 215.0" /><rect x="630" y="360" width="105" height="55" ry="5" rx="5" style="stroke:none; fill:#FFFFE0" /><g componentSequence="23"><text x="640" y="373" text-anchor="left" style="font-weight:bold;font-size:10px;stroke:none; fill:#000000"><tspan dy="14" x="640">Reprovado</tspan></text></g><path style="fill:none; stroke-width:1; stroke:#000000;" d="M650.0 360.0 L630.0 360.0 L630.0 415.0 L650.0 415.0" /><g sequence="26"><rect x="300" y="320" width="106" height="84" ry="5" rx="5" style="fill:url(#linearGradientF8FBFEEDF5FCDEEDFAD4E7F8E2E5E9_962362431);" stroke="191970" /></g><g componentSequence="26"><text x="353" y="335" text-anchor="middle" style="font-weight:bold;font-size:10px;stroke:none; fill:#333399"><tspan dy="14" x="353">GERH -</tspan><tspan dy="14" x="353">Consolidar</tspan><tspan dy="14" x="353">solicitações</tspan></text></g><g componentSequence="6"><text x="115" y="80" style="font-size:10px;font-weight:none;stroke:none; fill:#333399" text-anchor="left" /></g><g componentSequence="8"><text x="127" y="47" style="font-size:10px;font-weight:none;stroke:none; fill:#333399" text-anchor="left" /></g><g componentSequence="10"><text x="72" y="166" style="font-size:10px;font-weight:none;stroke:none; fill:#333399" text-anchor="left" /></g><g componentSequence="12"><text x="143" y="294" style="font-size:10px;font-weight:none;stroke:none; fill:#333399" text-anchor="left" /></g><g componentSequence="15"><text x="248" y="230" style="font-size:10px;font-weight:none;stroke:none; fill:#333399" text-anchor="left" /></g><g componentSequence="16"><text x="304" y="130" style="font-size:10px;font-weight:none;stroke:none; fill:#333399" text-anchor="left" /></g><g componentSequence="17"><text x="143" y="172" style="font-size:10px;font-weight:none;stroke:none; fill:#333399" text-anchor="left" /></g><g componentSequence="27"><text x="513" y="263" style="font-size:10px;font-weight:none;stroke:none; fill:#333399" text-anchor="left" /></g><g componentSequence="28"><text x="508" y="371" style="font-size:10px;font-weight:none;stroke:none; fill:#333399" text-anchor="left" /></g><g componentSequence="29"><text x="253" y="360" style="font-size:10px;font-weight:none;stroke:none; fill:#333399" text-anchor="left" /></g><g componentSequence="30"><text x="250" y="298" style="font-size:10px;font-weight:none;stroke:none; fill:#333399" text-anchor="left" /></g><path style="fill:none; stroke:#000000;stroke-width:1" d="M95.0 62.0 L113.0 94.0" /><polygon style="fill:#000000; stroke:#000000;" points=" 112 83 113 94 104 88 109 87" /><path style="fill:none; stroke:#000000;stroke-dasharray:2" d="M129.0 47.0 L105.0 47.0" /><path style="fill:none; stroke:#009600;stroke-width:1" d="M79.0 156.0 L60.0 165.0 L79.0 182.0" /><polygon style="fill:#009600; stroke:#009600;" points=" 75 172 79 182 68 179 73 177" /><path style="fill:none; stroke:#000000;stroke-width:1" d="M133.0 165.0 L133.0 179.0" /><polygon style="fill:#000000; stroke:#000000;" points=" 138 169 133 179 128 169 133 171" /><path style="fill:none; stroke:#000000;stroke-width:1" d="M342.0 189.0 L342.0 130.0 L186.0 130.0" /><polygon style="fill:#000000; stroke:#000000;" points=" 196 135 186 130 196 125 194 130" /><path style="fill:none; stroke:#000000;stroke-width:1" d="M133.0 278.0 L133.0 309.0" /><polygon style="fill:#000000; stroke:#000000;" points=" 138 299 133 309 128 299 133 301" /><path style="fill:none; stroke:#000000;stroke-width:1" d="M186.0 229.0 L289.0 231.0" /><polygon style="fill:#000000; stroke:#000000;" points=" 279 226 289 231 279 236 281 231" /><path style="fill:none; stroke:#000000;stroke-width:1" d="M186.0 359.0 L299.0 361.0" /><polygon style="fill:#000000; stroke:#000000;" points=" 289 356 299 361 289 366 291 361" /><path style="fill:none; stroke:#000000;stroke-width:1" d="M186.0 359.0 L240.0 359.0 L240.0 232.0 L289.0 232.0" /><polygon style="fill:#000000; stroke:#000000;" points=" 279 227 289 232 279 237 281 232" /><path style="fill:none; stroke:#000000;stroke-width:1" d="M406.0 365.0 L590.0 376.0" /><polygon style="fill:#000000; stroke:#000000;" points=" 580 370 590 376 580 380 582 376" /><path style="fill:none; stroke:#000000;stroke-width:1" d="M406.0 326.0 L602.0 196.0" /><polygon style="fill:#000000; stroke:#000000;" points=" 591 197 602 196 596 206 595 200" /><defs><linearGradient xmlns:xlink="http://www.w3.org/1999/xlink" xlink:href="#linearGradient66FF6696FF96B6FFB6" id="linearGradient66FF6696FF96B6FFB6_378103274" x1="0" y1="30.0" x2="0" y2="65.0" gradientUnits="userSpaceOnUse" xlink:type="simple" xlink:actuate="onLoad" xlink:show="other" /><linearGradient id="linearGradient66FF6696FF96B6FFB6"><stop style="stop-color:#66FF66;stop-opacity:1;" offset="0.0" id="stop66FF66" /><stop style="stop-color:#96FF96;stop-opacity:1;" offset="0.5" id="stop96FF96" /><stop style="stop-color:#B6FFB6;stop-opacity:1;" offset="1.0" id="stopB6FFB6" /></linearGradient><linearGradient xmlns:xlink="http://www.w3.org/1999/xlink" xlink:href="#linearGradientF8FBFEEDF5FCDEEDFAD4E7F8E2E5E9" id="linearGradientF8FBFEEDF5FCDEEDFAD4E7F8E2E5E9_407800139" x1="0" y1="95.0" x2="0" y2="201.0" gradientUnits="userSpaceOnUse" xlink:type="simple" xlink:actuate="onLoad" xlink:show="other" /><linearGradient id="linearGradientF8FBFEEDF5FCDEEDFAD4E7F8E2E5E9"><stop style="stop-color:#F8FBFE;stop-opacity:1;" offset="0.0" id="stopF8FBFE" /><stop style="stop-color:#EDF5FC;stop-opacity:1;" offset="0.25" id="stopEDF5FC" /><stop style="stop-color:#DEEDFA;stop-opacity:1;" offset="0.5" id="stopDEEDFA" /><stop style="stop-color:#D4E7F8;stop-opacity:1;" offset="0.75" id="stopD4E7F8" /><stop style="stop-color:#E2E5E9;stop-opacity:1;" offset="1.0" id="stopE2E5E9" /></linearGradient><linearGradient xmlns:xlink="http://www.w3.org/1999/xlink" xlink:href="#linearGradientF8FBFEEDF5FCDEEDFAD4E7F8E2E5E9" id="linearGradientF8FBFEEDF5FCDEEDFAD4E7F8E2E5E9_477171354" x1="0" y1="180.0" x2="0" y2="286.0" gradientUnits="userSpaceOnUse" xlink:type="simple" xlink:actuate="onLoad" xlink:show="other" /><linearGradient xmlns:xlink="http://www.w3.org/1999/xlink" xlink:href="#linearGradientF8FBFEEDF5FCDEEDFAD4E7F8E2E5E9" id="linearGradientF8FBFEEDF5FCDEEDFAD4E7F8E2E5E9_1500742512" x1="0" y1="310.0" x2="0" y2="416.0" gradientUnits="userSpaceOnUse" xlink:type="simple" xlink:actuate="onLoad" xlink:show="other" /><linearGradient xmlns:xlink="http://www.w3.org/1999/xlink" xlink:href="#linearGradientF8FBFEEDF5FCDEEDFAD4E7F8E2E5E9" id="linearGradientF8FBFEEDF5FCDEEDFAD4E7F8E2E5E9_67640193" x1="0" y1="190.0" x2="0" y2="296.0" gradientUnits="userSpaceOnUse" xlink:type="simple" xlink:actuate="onLoad" xlink:show="other" /><linearGradient xmlns:xlink="http://www.w3.org/1999/xlink" xlink:href="#linearGradientFF6666FF9696FFB6B6" id="linearGradientFF6666FF9696FFB6B6_1751178906" x1="0" y1="360.0" x2="0" y2="395.0" gradientUnits="userSpaceOnUse" xlink:type="simple" xlink:actuate="onLoad" xlink:show="other" /><linearGradient id="linearGradientFF6666FF9696FFB6B6"><stop style="stop-color:#FF6666;stop-opacity:1;" offset="0.0" id="stopFF6666" /><stop style="stop-color:#FF9696;stop-opacity:1;" offset="0.5" id="stopFF9696" /><stop style="stop-color:#FFB6B6;stop-opacity:1;" offset="1.0" id="stopFFB6B6" /></linearGradient><linearGradient xmlns:xlink="http://www.w3.org/1999/xlink" xlink:href="#linearGradientFF6666FF9696FFB6B6" id="linearGradientFF6666FF9696FFB6B6_2096175314" x1="0" y1="170.0" x2="0" y2="205.0" gradientUnits="userSpaceOnUse" xlink:type="simple" xlink:actuate="onLoad" xlink:show="other" /><linearGradient xmlns:xlink="http://www.w3.org/1999/xlink" xlink:href="#linearGradientF8FBFEEDF5FCDEEDFAD4E7F8E2E5E9" id="linearGradientF8FBFEEDF5FCDEEDFAD4E7F8E2E5E9_962362431" x1="0" y1="320.0" x2="0" y2="426.0" gradientUnits="userSpaceOnUse" xlink:type="simple" xlink:actuate="onLoad" xlink:show="other" /></defs></svg>
